# xmcd
#
# Track frame offsets:
#	150
#	12129
#	22534
#	35224
#	49406
#	58609
#	68867
#	82193
#	93586
#	105464
#	118019
#	129433
#	139074
#	149107
#	160365
#	171509
#	183432
#	194629
#	207691
#	220913
#	231285
#	242288
#	253005
#	264509
#
# Disc length: 3688 seconds
#
# Revision: 0
# Processed by: cddbd v1.5.2PL0 Copyright (c) Steve Scherf et al.
# Submitted via: EasyCDDAExtractor 16.0.1.1
#
DISCID=6f0e6618
DTITLE=Roy Drusky - Songs Of The Cities -64 +Yesterday's Gone -64
DYEAR=1964
DGENRE=Country
TTITLE0=Detroit City
TTITLE1=Columbus Stockade Blues
TTITLE2=Kansas City
TTITLE3=El Paso
TTITLE4=Abilene
TTITLE5=Battle Of New Orleans
TTITLE6=Texarkana Baby
TTITLE7=St  Louis Blues
TTITLE8=Birmingham Jail
TTITLE9=I Left My Heart In San Francisco
TTITLE10=Chattanooga Shoe Shine Boy
TTITLE11=Waterloo
TTITLE12=Yesterday's Gone
TTITLE13=Lonely Street
TTITLE14=It Was Fun While It Lasted
TTITLE15=Tender Years
TTITLE16=End Of The World
TTITLE17=Before I Lost You
TTITLE18=Yesterday
TTITLE19=Burning Memories
TTITLE20=Our Last Night Together
TTITLE21=Together Again
TTITLE22=Legend In My Time
TTITLE23=Take Good Care Of Her
EXTD=
EXTT0=
EXTT1=
EXTT2=
EXTT3=
EXTT4=
EXTT5=
EXTT6=
EXTT7=
EXTT8=
EXTT9=
EXTT10=
EXTT11=
EXTT12=
EXTT13=
EXTT14=
EXTT15=
EXTT16=
EXTT17=
EXTT18=
EXTT19=
EXTT20=
EXTT21=
EXTT22=
EXTT23=
PLAYORDER=
